HIERARCHY
ROOT Hips
{
	OFFSET 0.00000 0.00000 0.00000
	CHANNELS 6 Xposition Yposition Zposition Zrotation Yrotation Xrotation 
	JOINT LHipJoint
	{
		OFFSET 0 0 0
		CHANNELS 3 Zrotation Yrotation Xrotation
		JOINT LeftHip
		{
			OFFSET 1.66553 -1.82942 0.76350
			CHANNELS 3 Zrotation Yrotation Xrotation
			JOINT LeftKnee
			{
				OFFSET 2.41740 -6.64177 0.00000
				CHANNELS 3 Zrotation Yrotation Xrotation
				JOINT LeftAnkle
				{
					OFFSET 2.71614 -7.46254 0.00000
					CHANNELS 3 Zrotation Yrotation Xrotation
					JOINT LeftToe
					{
						OFFSET 0.08005 -0.21993 1.82495
						CHANNELS 3 Zrotation Yrotation Xrotation
						End Site
						{
							OFFSET 0.00000 -0.00000 0.93441
						}
					}
				}
			}
		}
	}
	JOINT RHipJoint
	{
		OFFSET 0 0 0
		CHANNELS 3 Zrotation Yrotation Xrotation
		JOINT RightHip
		{
			OFFSET -1.63725 -1.82942 0.76350
			CHANNELS 3 Zrotation Yrotation Xrotation
			JOINT RightKnee
			{
				OFFSET -2.40538 -6.60872 0.00000
				CHANNELS 3 Zrotation Yrotation Xrotation
				JOINT RightAnkle
				{
					OFFSET -2.73312 -7.50919 0.00000
					CHANNELS 3 Zrotation Yrotation Xrotation
					JOINT RightToe
					{
						OFFSET -0.15567 -0.42769 1.93504
						CHANNELS 3 Zrotation Yrotation Xrotation
						End Site
						{
							OFFSET -0.00000 -0.00000 1.00100
						}
					}
				}
			}
		}
	}
	JOINT lowerback
	{
		OFFSET 0 0 0
		CHANNELS 3 Zrotation Yrotation Xrotation
		JOINT Chest
		{
			OFFSET 0.00326 2.30118 -0.13017
			CHANNELS 3 Zrotation Yrotation Xrotation
			JOINT Chest2
			{
				OFFSET 0.02887 2.30677 0.00834
				CHANNELS 3 Zrotation Yrotation Xrotation
				JOINT lowerneck
				{
					OFFSET 0 0 0
					CHANNELS 3 Zrotation Yrotation Xrotation
					JOINT Neck
					{
						OFFSET 0.12946 1.68326 0.00713
						CHANNELS 3 Zrotation Yrotation Xrotation
						JOINT Head
						{
							OFFSET -0.24364 1.67243 -0.16079
							CHANNELS 3 Zrotation Yrotation Xrotation
							End Site
							{
								OFFSET -0.09229 1.70819 -0.06383
							}
						}
					}
				}
				JOINT LeftCollar
				{
					OFFSET 0 0 0
					CHANNELS 3 Zrotation Yrotation Xrotation
					JOINT LeftShoulder
					{
						OFFSET 3.28104 0.69567 -0.00556
CHANNELS 3 Zrotation Xrotation Yrotation
						JOINT LeftElbow
						{
OFFSET 0 -5.707060 -0.000000
CHANNELS 3 Zrotation Xrotation Yrotation
							JOINT LeftWrist
							{
OFFSET 0 -3.332430 0.000000
CHANNELS 3 Zrotation Xrotation Yrotation
								JOINT lhand
								{
									OFFSET 0 0 0
CHANNELS 3 Zrotation Xrotation Yrotation
									JOINT LFingers
									{
OFFSET 0 -0.792690 0.000000
CHANNELS 3 Zrotation Xrotation Yrotation
										End Site
										{
OFFSET 0 -0.639090 0.000000
										}
									}
								}
								JOINT LThumb
								{
OFFSET 0 0.000000 0.000000
CHANNELS 3 Zrotation Xrotation Yrotation
									End Site
									{
OFFSET 0 -0.648840 0.648840
									}
								}
							}
						}
					}
				}
				JOINT RightCollar
				{
					OFFSET 0 0 0
					CHANNELS 3 Zrotation Yrotation Xrotation
					JOINT RightShoulder
					{
						OFFSET -3.40955 0.64424 0.14010
CHANNELS 3 Zrotation Xrotation Yrotation
						JOINT RightElbow
						{
OFFSET 0 -5.881760 -0.000000
CHANNELS 3 Zrotation Xrotation Yrotation
							JOINT RightWrist
							{
OFFSET 0 -3.281560 0.000000
CHANNELS 3 Zrotation Xrotation Yrotation
								JOINT rhand
								{
									OFFSET 0 0 0
CHANNELS 3 Zrotation Xrotation Yrotation
									JOINT RFingers
									{
OFFSET 0 -0.863130 0.000000
CHANNELS 3 Zrotation Xrotation Yrotation
										End Site
										{
OFFSET 0 -0.695870 0.000000
										}
									}
								}
								JOINT RThumb
								{
OFFSET 0 0.000000 0.000000
CHANNELS 3 Zrotation Xrotation Yrotation
									End Site
									{
OFFSET 0 -0.706500 0.706500
									}
								}
							}
						}
					}
				}
			}
		}
	}
}
MOTION
Frames: 11
Frame Time: 0.008333333333333333
11.848300 17.729300 -13.049600 -0.793100 2.074900 1.876000 0.000000 0.000000 0.000000 -12.796100 -2.892900 -10.634100 1.843300 8.531700 24.341100 0.873300 -2.363500 -17.019000 4.366100 -12.632300 -38.007200 0.000000 0.000000 0.000000 10.843000 2.944300 -7.888700 -1.538500 -7.830100 22.199300 -0.987500 0.068700 -18.766500 -0.659700 5.194700 -14.464800 0.126900 -2.508900 8.914800 0.908900 -3.274300 -2.189000 1.375800 -1.586000 -7.260700 16.234400 7.149800 1.184100 -19.906000 10.202000 1.307600 -8.557500 5.120400 2.099800 0.000000 0.000000 0.000000 4.367500 17.879400 -19.816800 25.595600 -36.806600 8.644200 38.984900 -25.750900 -17.784000 0.000000 0.000000 0.000000 -7.125000 0.000000 0.000000 11.382700 52.049200 -1.996800 0.000000 0.000000 0.000000 -1.392500 8.652600 15.951400 -14.803200 -23.871200 -3.145900 -39.419500 -9.899800 -25.280600 0.000000 0.000000 0.000000 7.125000 0.000000 -0.000000 -5.779600 -1.318300 -5.941100
11.759636 17.724752 -13.036806 -0.468677 2.312755 1.779121 0.000000 0.000000 0.000000 -12.853539 -2.995351 -10.205825 1.775068 8.380879 23.877060 0.856961 -2.507115 -16.825150 4.436942 -12.720195 -38.329957 0.000000 0.000000 0.000000 10.672237 2.582954 -10.353665 -2.130181 -9.132059 26.209477 -1.003859 0.816661 -18.683568 -0.558225 4.784143 -13.294222 -0.004749 -2.612508 9.004958 0.554769 -3.452249 -2.063770 1.104902 -1.676315 -7.189941 16.375465 7.711060 1.890009 -22.057007 11.206592 1.510540 -9.261486 5.645835 2.372405 0.000000 0.000000 0.000000 6.066177 15.562055 -23.270169 33.199279 -43.481882 13.559230 37.765729 -26.062861 -17.357704 0.000000 0.000000 0.000000 -7.125000 0.000000 0.000000 10.059256 51.280057 -1.569184 0.000000 0.000000 0.000000 -0.947608 8.962130 17.002334 -14.803211 -23.871115 -3.145942 -34.975793 -11.984119 -23.313452 0.000000 0.000000 0.000000 7.125000 0.000000 0.000000 -3.551215 2.284786 -3.413288
11.450019 17.691967 -12.970304 0.071183 2.385826 1.280101 0.000000 0.000000 0.000000 -12.355244 -2.856861 -9.145992 1.685114 8.176965 23.252775 0.837560 -2.275091 -16.672846 4.593390 -12.910764 -39.035229 0.000000 0.000000 0.000000 11.183930 1.713301 -8.725945 -1.880012 -8.611656 24.587762 -1.133625 0.595900 -19.943069 -1.072921 6.584470 -18.490003 -0.470260 -2.847942 8.268984 0.323665 -3.835050 -2.091280 1.137540 -1.855450 -6.777202 16.754018 8.341103 3.051483 -22.489034 12.452616 2.722436 -9.419463 6.304363 2.819943 0.000000 0.000000 0.000000 6.243116 14.136077 -26.666721 39.484867 -47.761722 18.056889 34.781857 -17.377436 -23.781840 0.000000 0.000000 0.000000 -7.125000 0.000000 0.000000 6.337882 58.082789 -2.034136 0.000000 0.000000 0.000000 -2.185708 8.735327 19.689781 -16.556696 -26.269724 -3.889113 -21.051654 -0.746496 -18.451768 0.000000 0.000000 0.000000 7.125000 0.000000 0.000000 4.606561 10.357017 3.715895
11.173697 17.706466 -12.956855 -0.841872 1.046639 0.818855 0.000000 0.000000 0.000000 -10.411349 -2.084464 -7.922919 1.558568 7.878635 22.346168 0.806331 -1.730772 -16.467861 4.191399 -12.410658 -37.200882 0.000000 0.000000 0.000000 13.200762 2.198567 -8.036488 -1.776829 -8.384918 23.889471 -1.146526 1.457567 -19.810322 -0.924777 6.122248 -17.140795 0.556005 -2.580935 7.921702 0.641257 -3.349295 -2.195468 0.815329 -1.652941 -6.737732 17.631877 8.209529 2.808713 -22.336885 12.369594 3.493669 -9.510214 6.246906 3.110456 0.000000 0.000000 0.000000 5.081239 15.167435 -32.515351 42.723085 -49.602895 20.489655 23.194437 -2.509147 -25.770080 0.000000 0.000000 0.000000 -7.125000 0.000000 0.000000 -7.373297 57.538234 2.268606 0.000000 0.000000 0.000000 -3.131703 7.110178 20.076128 -17.137555 -27.038555 -4.149754 -15.288494 2.778642 -17.090339 0.000000 0.000000 0.000000 7.125000 0.000000 0.000000 8.338159 12.440277 6.415959
11.042898 17.710907 -12.932191 -1.056336 1.748182 0.815058 0.000000 0.000000 0.000000 -9.742859 -2.655463 -7.594049 1.497440 7.729658 21.895987 0.775812 -1.479186 -16.205318 4.526931 -12.830362 -38.736799 0.000000 0.000000 0.000000 13.954512 1.627533 -7.502938 -1.679158 -8.163109 23.210627 -1.165853 1.239273 -20.040058 -0.738519 5.490158 -15.311957 0.672280 -3.013786 6.746214 1.125558 -3.899811 -2.370422 1.265133 -1.923800 -6.220815 17.435505 7.974157 2.561744 -20.511766 11.964659 4.137559 -8.870435 6.035808 3.117185 0.000000 0.000000 0.000000 3.340937 17.039776 -37.678895 44.322814 -50.432359 21.715504 7.752141 9.078014 -26.491036 0.000000 0.000000 0.000000 -7.125000 0.000000 0.000000 -23.630305 55.074671 6.101307 0.000000 0.000000 0.000000 -3.816553 6.907861 18.998587 -17.928782 -28.065910 -4.515683 -20.256299 -3.518517 -17.910676 0.000000 0.000000 0.000000 7.125000 0.000000 0.000000 5.093064 11.029146 4.041106
11.052166 17.710655 -12.939660 -1.046534 2.376329 0.454985 0.000000 0.000000 0.000000 -9.791712 -2.720009 -7.256545 1.471069 7.664461 21.699424 0.772097 -1.792018 -16.089602 4.518908 -12.820577 -38.700541 0.000000 0.000000 0.000000 13.951455 1.283013 -6.770204 -1.604507 -7.988544 22.679314 -1.262650 1.839722 -20.717111 -0.291943 3.359956 -9.292793 0.763009 -2.581296 6.661927 0.947024 -3.326135 -2.172462 0.948668 -1.649509 -5.986454 17.493897 7.176471 1.167975 -18.632457 10.627808 5.008324 -8.291452 5.320705 3.235853 0.000000 0.000000 0.000000 3.695655 17.844044 -40.846342 44.555649 -50.548848 21.895122 1.340937 8.266409 -27.628826 0.000000 0.000000 0.000000 -7.125000 0.000000 0.000000 -30.564794 54.861174 7.952912 0.000000 0.000000 0.000000 -3.200468 6.412553 15.711461 -15.670563 -25.071797 -3.505276 -23.277733 -4.557290 -19.268581 0.000000 0.000000 0.000000 7.125000 0.000000 0.000000 3.222658 9.171754 2.672293
11.134248 17.715884 -12.945595 -1.132483 3.285269 0.722506 0.000000 0.000000 0.000000 -9.919504 -2.907808 -7.756468 1.459837 7.636441 21.615135 0.772601 -2.408752 -15.964840 4.774925 -13.125721 -39.841024 0.000000 0.000000 0.000000 13.786992 0.724499 -6.732727 -1.537431 -7.827468 22.191414 -1.216214 1.141694 -20.505488 -0.409907 4.110025 -11.386419 0.695763 -2.344816 6.569090 1.042356 -3.010136 -2.424207 1.052077 -1.488460 -6.192042 16.991907 6.815135 0.837306 -17.617098 10.139981 6.176916 -7.891178 5.064861 3.457904 0.000000 0.000000 0.000000 4.621418 18.292779 -38.953747 45.601714 -51.059898 22.705820 3.793818 9.604629 -30.103425 0.000000 0.000000 0.000000 -7.125000 0.000000 0.000000 -30.142820 57.478606 9.804549 0.000000 0.000000 0.000000 -2.744020 7.370279 13.796336 -13.622874 -22.193051 -2.684030 -23.519612 -1.653143 -19.273313 0.000000 0.000000 0.000000 7.125000 0.000000 0.000000 3.067192 9.128794 2.544548
11.158919 17.720787 -12.931325 -0.429494 3.671598 0.727035 0.000000 0.000000 0.000000 -10.831194 -3.093993 -7.277890 1.367786 7.401843 20.911452 0.733889 -2.275621 -15.571486 4.890969 -13.259892 -40.349448 0.000000 0.000000 0.000000 12.965847 1.004018 -6.833121 -1.636819 -8.064698 22.910795 -1.203779 0.551756 -20.572990 -0.398755 4.054173 -11.229040 -0.215767 -2.111161 6.748383 0.768905 -2.796371 -2.472323 1.260871 -1.351768 -6.316702 16.507853 6.495782 0.654436 -17.612385 9.826935 7.457383 -7.829170 4.881343 3.779363 0.000000 0.000000 0.000000 6.863731 18.320706 -35.650491 46.804643 -51.622518 23.645188 4.305717 10.676282 -31.245701 0.000000 0.000000 0.000000 -7.125000 0.000000 0.000000 -30.619530 58.565931 10.803536 0.000000 0.000000 0.000000 -1.743981 7.900032 11.430762 -12.621960 -20.730776 -2.317743 -22.610099 4.895524 -19.939271 0.000000 0.000000 0.000000 7.125000 0.000000 0.000000 3.711604 8.562864 3.124246
11.138323 17.722056 -12.891137 -0.792659 3.648832 0.569676 0.000000 0.000000 0.000000 -10.393926 -3.303063 -7.022279 1.398436 7.480899 21.148025 0.743776 -2.014932 -15.732958 4.793211 -13.146981 -39.921290 0.000000 0.000000 0.000000 13.419650 0.495637 -6.368877 -1.546762 -7.850229 22.260085 -1.164714 0.682750 -20.191922 -0.488988 4.483667 -12.441514 0.081943 -2.159381 6.795183 0.906126 -2.825339 -2.232762 1.235704 -1.376962 -6.097601 16.433030 6.638052 -0.208543 -18.594251 10.118533 8.380297 -8.101253 4.944947 4.297741 0.000000 0.000000 0.000000 7.729161 17.406226 -32.463392 46.115805 -51.303525 23.106432 8.852204 14.786418 -28.622478 0.000000 0.000000 0.000000 -7.125000 0.000000 0.000000 -23.998103 57.234532 7.482792 0.000000 0.000000 0.000000 -1.731804 8.013835 14.972191 -13.224209 -21.614789 -2.535244 -18.288197 6.427021 -19.269853 0.000000 0.000000 0.000000 7.125000 0.000000 0.000000 6.456053 9.867570 5.288395
11.120903 17.732408 -12.841271 -0.491157 2.940479 0.667885 0.000000 0.000000 0.000000 -10.747296 -3.240432 -6.392435 1.327087 7.295288 20.593194 0.740904 -1.202443 -15.898839 4.764388 -13.113358 -39.794401 0.000000 0.000000 0.000000 13.162997 0.868466 -6.393071 -1.562076 -7.887241 22.372221 -1.184092 0.819803 -20.320540 -0.549529 4.748523 -13.192816 -0.162548 -2.147692 6.501062 0.748403 -2.842153 -2.180399 1.195377 -1.381514 -5.870164 16.858105 6.836943 -0.204069 -18.974516 10.387866 8.105742 -8.279094 5.082105 4.310706 0.000000 0.000000 0.000000 7.440679 17.631300 -33.058668 45.904905 -51.204078 22.941924 8.554870 13.019521 -27.301017 0.000000 0.000000 0.000000 -7.125000 0.000000 0.000000 -23.373325 55.971203 6.546487 0.000000 0.000000 0.000000 -1.839560 7.122488 15.556307 -13.657246 -22.242563 -2.696977 -16.486501 7.819908 -18.896219 0.000000 0.000000 0.000000 7.125000 0.000000 0.000000 7.608548 10.469676 6.155241
11.124128 17.732746 -12.802951 -0.930093 2.771215 0.887491 0.000000 0.000000 0.000000 -10.219948 -3.048246 -6.700524 1.360610 7.383238 20.855796 0.772221 -1.460776 -16.172401 4.619096 -12.939339 -39.145625 0.000000 0.000000 0.000000 13.643189 0.959545 -6.354861 -1.517716 -7.779452 22.046222 -1.204277 1.209471 -20.383458 -0.468143 4.386326 -12.166564 0.364954 -2.233030 6.459011 0.880565 -2.901445 -2.394256 1.049483 -1.426212 -6.089914 16.688204 6.959081 -0.133052 -18.493523 10.494059 7.888488 -8.076244 5.148625 4.219846 0.000000 0.000000 0.000000 6.333407 18.043233 -35.966365 45.940695 -51.221033 22.969748 10.708495 13.193803 -26.740460 0.000000 0.000000 0.000000 -7.125000 0.000000 0.000000 -20.870684 55.882457 5.750975 0.000000 0.000000 0.000000 -2.109751 7.266053 16.404748 -14.884032 -23.984220 -3.178683 -17.595922 2.988149 -18.194716 0.000000 0.000000 0.000000 7.125000 0.000000 0.000000 6.854415 11.060185 5.452322
